<svg xmlns="http://www.w3.org/2000/svg" xmlns:xlink="http://www.w3.org/1999/xlink" width="200" zoomAndPan="magnify" viewBox="0 0 150 74.999997" height="100" preserveAspectRatio="xMidYMid meet" version="1.0"><defs><g/></defs><g fill="#000000" fill-opacity="1"><g transform="translate(4.71094, 45.831565)"><g><path d="M 8.03125 -12.21875 C 6.863281 -12.21875 5.960938 -11.78125 5.328125 -10.90625 C 4.691406 -10.03125 4.375 -8.8125 4.375 -7.25 C 4.375 -4 5.59375 -2.375 8.03125 -2.375 C 9.050781 -2.375 10.289062 -2.628906 11.75 -3.140625 L 11.75 -0.546875 C 10.550781 -0.046875 9.21875 0.203125 7.75 0.203125 C 5.625 0.203125 4 -0.4375 2.875 -1.71875 C 1.75 -3.007812 1.1875 -4.863281 1.1875 -7.28125 C 1.1875 -8.789062 1.460938 -10.113281 2.015625 -11.25 C 2.566406 -12.394531 3.359375 -13.269531 4.390625 -13.875 C 5.429688 -14.488281 6.644531 -14.796875 8.03125 -14.796875 C 9.445312 -14.796875 10.867188 -14.453125 12.296875 -13.765625 L 11.3125 -11.25 C 10.757812 -11.507812 10.207031 -11.734375 9.65625 -11.921875 C 9.101562 -12.117188 8.5625 -12.21875 8.03125 -12.21875 Z M 8.03125 -12.21875 "/></g></g></g><g fill="#000000" fill-opacity="1"><g transform="translate(17.742189, 45.831565)"><g><path d="M 11.203125 -5.484375 C 11.203125 -3.691406 10.75 -2.296875 9.84375 -1.296875 C 8.945312 -0.296875 7.707031 0.203125 6.125 0.203125 C 5.144531 0.203125 4.273438 -0.0234375 3.515625 -0.484375 C 2.765625 -0.941406 2.179688 -1.597656 1.765625 -2.453125 C 1.347656 -3.316406 1.140625 -4.328125 1.140625 -5.484375 C 1.140625 -7.265625 1.585938 -8.648438 2.484375 -9.640625 C 3.378906 -10.640625 4.617188 -11.140625 6.203125 -11.140625 C 7.734375 -11.140625 8.945312 -10.628906 9.84375 -9.609375 C 10.75 -8.585938 11.203125 -7.210938 11.203125 -5.484375 Z M 2.859375 -5.484375 C 2.859375 -4.085938 3.140625 -3.019531 3.703125 -2.28125 C 4.265625 -1.550781 5.085938 -1.1875 6.171875 -1.1875 C 7.253906 -1.1875 8.078125 -1.550781 8.640625 -2.28125 C 9.203125 -3.007812 9.484375 -4.078125 9.484375 -5.484375 C 9.484375 -6.867188 9.203125 -7.921875 8.640625 -8.640625 C 8.078125 -9.367188 7.242188 -9.734375 6.140625 -9.734375 C 5.054688 -9.734375 4.238281 -9.375 3.6875 -8.65625 C 3.132812 -7.945312 2.859375 -6.890625 2.859375 -5.484375 Z M 2.859375 -5.484375 "/></g></g></g><g fill="#000000" fill-opacity="1"><g transform="translate(30.086518, 45.831565)"><g><path d="M 8.8125 -2.984375 C 8.8125 -1.960938 8.429688 -1.175781 7.671875 -0.625 C 6.910156 -0.0703125 5.847656 0.203125 4.484375 0.203125 C 3.035156 0.203125 1.90625 -0.0234375 1.09375 -0.484375 L 1.09375 -2.03125 C 1.613281 -1.757812 2.175781 -1.546875 2.78125 -1.390625 C 3.382812 -1.242188 3.960938 -1.171875 4.515625 -1.171875 C 5.378906 -1.171875 6.046875 -1.304688 6.515625 -1.578125 C 6.984375 -1.859375 7.21875 -2.28125 7.21875 -2.84375 C 7.21875 -3.269531 7.03125 -3.632812 6.65625 -3.9375 C 6.289062 -4.238281 5.570312 -4.597656 4.5 -5.015625 C 3.476562 -5.390625 2.753906 -5.71875 2.328125 -6 C 1.898438 -6.28125 1.582031 -6.597656 1.375 -6.953125 C 1.164062 -7.316406 1.0625 -7.75 1.0625 -8.25 C 1.0625 -9.144531 1.421875 -9.847656 2.140625 -10.359375 C 2.867188 -10.878906 3.863281 -11.140625 5.125 -11.140625 C 6.300781 -11.140625 7.453125 -10.898438 8.578125 -10.421875 L 8 -9.078125 C 6.894531 -9.523438 5.898438 -9.75 5.015625 -9.75 C 4.222656 -9.75 3.628906 -9.625 3.234375 -9.375 C 2.835938 -9.132812 2.640625 -8.796875 2.640625 -8.359375 C 2.640625 -8.066406 2.710938 -7.816406 2.859375 -7.609375 C 3.003906 -7.410156 3.242188 -7.21875 3.578125 -7.03125 C 3.910156 -6.84375 4.550781 -6.570312 5.5 -6.21875 C 6.789062 -5.75 7.664062 -5.273438 8.125 -4.796875 C 8.582031 -4.316406 8.8125 -3.710938 8.8125 -2.984375 Z M 8.8125 -2.984375 "/></g></g></g><g fill="#000000" fill-opacity="1"><g transform="translate(39.836242, 45.831565)"><g><path d="M 6.84375 0.203125 C 6.132812 0.203125 5.484375 0.0703125 4.890625 -0.1875 C 4.304688 -0.457031 3.8125 -0.863281 3.40625 -1.40625 L 3.296875 -1.40625 C 3.367188 -0.769531 3.40625 -0.164062 3.40625 0.40625 L 3.40625 4.90625 L 1.75 4.90625 L 1.75 -10.9375 L 3.109375 -10.9375 L 3.328125 -9.4375 L 3.40625 -9.4375 C 3.832031 -10.039062 4.328125 -10.472656 4.890625 -10.734375 C 5.460938 -11.003906 6.113281 -11.140625 6.84375 -11.140625 C 8.289062 -11.140625 9.410156 -10.640625 10.203125 -9.640625 C 10.992188 -8.648438 11.390625 -7.265625 11.390625 -5.484375 C 11.390625 -3.679688 10.988281 -2.28125 10.1875 -1.28125 C 9.382812 -0.289062 8.269531 0.203125 6.84375 0.203125 Z M 6.609375 -9.734375 C 5.492188 -9.734375 4.6875 -9.421875 4.1875 -8.796875 C 3.6875 -8.179688 3.425781 -7.195312 3.40625 -5.84375 L 3.40625 -5.484375 C 3.40625 -3.941406 3.660156 -2.835938 4.171875 -2.171875 C 4.691406 -1.515625 5.515625 -1.1875 6.640625 -1.1875 C 7.585938 -1.1875 8.328125 -1.566406 8.859375 -2.328125 C 9.398438 -3.097656 9.671875 -4.15625 9.671875 -5.5 C 9.671875 -6.863281 9.398438 -7.910156 8.859375 -8.640625 C 8.328125 -9.367188 7.578125 -9.734375 6.609375 -9.734375 Z M 6.609375 -9.734375 "/></g></g></g><g fill="#000000" fill-opacity="1"><g transform="translate(52.360198, 45.831565)"><g><path d="M 3.40625 0 L 1.75 0 L 1.75 -15.53125 L 3.40625 -15.53125 Z M 3.40625 0 "/></g></g></g><g fill="#000000" fill-opacity="1"><g transform="translate(57.529448, 45.831565)"><g><path d="M 8.484375 0 L 8.15625 -1.5625 L 8.078125 -1.5625 C 7.523438 -0.875 6.976562 -0.40625 6.4375 -0.15625 C 5.894531 0.0820312 5.21875 0.203125 4.40625 0.203125 C 3.320312 0.203125 2.472656 -0.078125 1.859375 -0.640625 C 1.242188 -1.203125 0.9375 -2 0.9375 -3.03125 C 0.9375 -5.238281 2.703125 -6.394531 6.234375 -6.5 L 8.09375 -6.5625 L 8.09375 -7.234375 C 8.09375 -8.085938 7.90625 -8.71875 7.53125 -9.125 C 7.164062 -9.539062 6.578125 -9.75 5.765625 -9.75 C 4.859375 -9.75 3.828125 -9.46875 2.671875 -8.90625 L 2.171875 -10.171875 C 2.703125 -10.472656 3.289062 -10.703125 3.9375 -10.859375 C 4.582031 -11.023438 5.226562 -11.109375 5.875 -11.109375 C 7.175781 -11.109375 8.140625 -10.816406 8.765625 -10.234375 C 9.390625 -9.660156 9.703125 -8.738281 9.703125 -7.46875 L 9.703125 0 Z M 4.734375 -1.171875 C 5.765625 -1.171875 6.570312 -1.453125 7.15625 -2.015625 C 7.75 -2.578125 8.046875 -3.367188 8.046875 -4.390625 L 8.046875 -5.375 L 6.390625 -5.3125 C 5.078125 -5.257812 4.128906 -5.050781 3.546875 -4.6875 C 2.960938 -4.332031 2.671875 -3.769531 2.671875 -3 C 2.671875 -2.40625 2.851562 -1.953125 3.21875 -1.640625 C 3.582031 -1.328125 4.085938 -1.171875 4.734375 -1.171875 Z M 4.734375 -1.171875 "/></g></g></g><g fill="#000000" fill-opacity="1"><g transform="translate(68.89581, 45.831565)"><g><path d="M 0.015625 -10.9375 L 1.796875 -10.9375 L 4.1875 -4.703125 C 4.71875 -3.273438 5.046875 -2.242188 5.171875 -1.609375 L 5.25 -1.609375 C 5.332031 -1.953125 5.507812 -2.535156 5.78125 -3.359375 C 6.0625 -4.179688 6.96875 -6.707031 8.5 -10.9375 L 10.28125 -10.9375 L 5.578125 1.515625 C 5.109375 2.742188 4.5625 3.613281 3.9375 4.125 C 3.320312 4.644531 2.5625 4.90625 1.65625 4.90625 C 1.144531 4.90625 0.644531 4.847656 0.15625 4.734375 L 0.15625 3.40625 C 0.519531 3.488281 0.929688 3.53125 1.390625 3.53125 C 2.523438 3.53125 3.335938 2.890625 3.828125 1.609375 L 4.4375 0.0625 Z M 0.015625 -10.9375 "/></g></g></g><g fill="#000000" fill-opacity="1"><g transform="translate(79.195309, 45.831565)"><g><path d="M 8.03125 -12.21875 C 6.863281 -12.21875 5.960938 -11.78125 5.328125 -10.90625 C 4.691406 -10.03125 4.375 -8.8125 4.375 -7.25 C 4.375 -4 5.59375 -2.375 8.03125 -2.375 C 9.050781 -2.375 10.289062 -2.628906 11.75 -3.140625 L 11.75 -0.546875 C 10.550781 -0.046875 9.21875 0.203125 7.75 0.203125 C 5.625 0.203125 4 -0.4375 2.875 -1.71875 C 1.75 -3.007812 1.1875 -4.863281 1.1875 -7.28125 C 1.1875 -8.789062 1.460938 -10.113281 2.015625 -11.25 C 2.566406 -12.394531 3.359375 -13.269531 4.390625 -13.875 C 5.429688 -14.488281 6.644531 -14.796875 8.03125 -14.796875 C 9.445312 -14.796875 10.867188 -14.453125 12.296875 -13.765625 L 11.3125 -11.25 C 10.757812 -11.507812 10.207031 -11.734375 9.65625 -11.921875 C 9.101562 -12.117188 8.5625 -12.21875 8.03125 -12.21875 Z M 8.03125 -12.21875 "/></g></g></g><g fill="#000000" fill-opacity="1"><g transform="translate(92.226558, 45.831565)"><g><path d="M 11.203125 -5.484375 C 11.203125 -3.691406 10.75 -2.296875 9.84375 -1.296875 C 8.945312 -0.296875 7.707031 0.203125 6.125 0.203125 C 5.144531 0.203125 4.273438 -0.0234375 3.515625 -0.484375 C 2.765625 -0.941406 2.179688 -1.597656 1.765625 -2.453125 C 1.347656 -3.316406 1.140625 -4.328125 1.140625 -5.484375 C 1.140625 -7.265625 1.585938 -8.648438 2.484375 -9.640625 C 3.378906 -10.640625 4.617188 -11.140625 6.203125 -11.140625 C 7.734375 -11.140625 8.945312 -10.628906 9.84375 -9.609375 C 10.75 -8.585938 11.203125 -7.210938 11.203125 -5.484375 Z M 2.859375 -5.484375 C 2.859375 -4.085938 3.140625 -3.019531 3.703125 -2.28125 C 4.265625 -1.550781 5.085938 -1.1875 6.171875 -1.1875 C 7.253906 -1.1875 8.078125 -1.550781 8.640625 -2.28125 C 9.203125 -3.007812 9.484375 -4.078125 9.484375 -5.484375 C 9.484375 -6.867188 9.203125 -7.921875 8.640625 -8.640625 C 8.078125 -9.367188 7.242188 -9.734375 6.140625 -9.734375 C 5.054688 -9.734375 4.238281 -9.375 3.6875 -8.65625 C 3.132812 -7.945312 2.859375 -6.890625 2.859375 -5.484375 Z M 2.859375 -5.484375 "/></g></g></g><g fill="#000000" fill-opacity="1"><g transform="translate(104.570887, 45.831565)"><g><path d="M 6.75 -11.140625 C 7.226562 -11.140625 7.660156 -11.097656 8.046875 -11.015625 L 7.828125 -9.484375 C 7.367188 -9.578125 6.96875 -9.625 6.625 -9.625 C 5.738281 -9.625 4.976562 -9.265625 4.34375 -8.546875 C 3.71875 -7.828125 3.40625 -6.9375 3.40625 -5.875 L 3.40625 0 L 1.75 0 L 1.75 -10.9375 L 3.125 -10.9375 L 3.3125 -8.90625 L 3.390625 -8.90625 C 3.796875 -9.625 4.285156 -10.175781 4.859375 -10.5625 C 5.429688 -10.945312 6.0625 -11.140625 6.75 -11.140625 Z M 6.75 -11.140625 "/></g></g></g><g fill="#000000" fill-opacity="1"><g transform="translate(112.913537, 45.831565)"><g><path d="M 9.234375 0 L 9.234375 -7.078125 C 9.234375 -7.960938 9.03125 -8.625 8.625 -9.0625 C 8.21875 -9.507812 7.582031 -9.734375 6.71875 -9.734375 C 5.582031 -9.734375 4.742188 -9.421875 4.203125 -8.796875 C 3.671875 -8.179688 3.40625 -7.160156 3.40625 -5.734375 L 3.40625 0 L 1.75 0 L 1.75 -10.9375 L 3.109375 -10.9375 L 3.375 -9.4375 L 3.453125 -9.4375 C 3.796875 -9.976562 4.269531 -10.394531 4.875 -10.6875 C 5.488281 -10.988281 6.171875 -11.140625 6.921875 -11.140625 C 8.242188 -11.140625 9.234375 -10.820312 9.890625 -10.1875 C 10.554688 -9.550781 10.890625 -8.535156 10.890625 -7.140625 L 10.890625 0 Z M 9.234375 0 "/></g></g></g><g fill="#000000" fill-opacity="1"><g transform="translate(125.457451, 45.831565)"><g><path d="M 6.375 0.203125 C 4.757812 0.203125 3.484375 -0.285156 2.546875 -1.265625 C 1.609375 -2.253906 1.140625 -3.625 1.140625 -5.375 C 1.140625 -7.132812 1.570312 -8.535156 2.4375 -9.578125 C 3.3125 -10.617188 4.484375 -11.140625 5.953125 -11.140625 C 7.316406 -11.140625 8.394531 -10.6875 9.1875 -9.78125 C 9.988281 -8.882812 10.390625 -7.695312 10.390625 -6.21875 L 10.390625 -5.171875 L 2.859375 -5.171875 C 2.890625 -3.890625 3.210938 -2.914062 3.828125 -2.25 C 4.453125 -1.582031 5.320312 -1.25 6.4375 -1.25 C 7.613281 -1.25 8.773438 -1.492188 9.921875 -1.984375 L 9.921875 -0.515625 C 9.335938 -0.253906 8.785156 -0.0703125 8.265625 0.03125 C 7.742188 0.144531 7.113281 0.203125 6.375 0.203125 Z M 5.921875 -9.75 C 5.046875 -9.75 4.347656 -9.460938 3.828125 -8.890625 C 3.304688 -8.316406 3 -7.523438 2.90625 -6.515625 L 8.625 -6.515625 C 8.625 -7.554688 8.390625 -8.351562 7.921875 -8.90625 C 7.453125 -9.46875 6.785156 -9.75 5.921875 -9.75 Z M 5.921875 -9.75 "/></g></g></g><g fill="#000000" fill-opacity="1"><g transform="translate(136.923606, 45.831565)"><g><path d="M 6.75 -11.140625 C 7.226562 -11.140625 7.660156 -11.097656 8.046875 -11.015625 L 7.828125 -9.484375 C 7.367188 -9.578125 6.96875 -9.625 6.625 -9.625 C 5.738281 -9.625 4.976562 -9.265625 4.34375 -8.546875 C 3.71875 -7.828125 3.40625 -6.9375 3.40625 -5.875 L 3.40625 0 L 1.75 0 L 1.75 -10.9375 L 3.125 -10.9375 L 3.3125 -8.90625 L 3.390625 -8.90625 C 3.796875 -9.625 4.285156 -10.175781 4.859375 -10.5625 C 5.429688 -10.945312 6.0625 -11.140625 6.75 -11.140625 Z M 6.75 -11.140625 "/></g></g></g></svg>